<svg id="Capa_1" enable-background="new 0 0 512.004 512.004" height="512" viewBox="0 0 512.004 512.004" width="512" xmlns="http://www.w3.org/2000/svg"><g><path d="m499.6 303.545c-16.525-18.589-45.126-20.307-63.753-3.827l-24.825 21.96v-141.678h5c8.284 0 15-6.716 15-15v-70c0-8.284-6.716-15-15-15h-71.035c3.848-7.507 6.035-16 6.035-25 0-30.327-24.673-55-55-55-15.75 0-29.964 6.665-40 17.31-10.036-10.645-24.25-17.31-40-17.31-30.327 0-55 24.673-55 55 0 9 2.187 17.493 6.035 25h-71.035c-8.284 0-15 6.716-15 15v70c0 8.284 6.716 15 15 15h5v113.561c-9.175 4.448-17.854 10.063-25.839 16.798l-11.978 10.101-53.092 22.752c-3.656 1.567-6.541 4.522-8.019 8.216-1.478 3.693-1.427 7.823.14 11.479l60 140c2.438 5.688 7.975 9.095 13.794 9.095 1.971 0 3.975-.391 5.902-1.217l52.316-22.42h198.125c18.527 0 36.323-6.817 50.107-19.195l113.537-101.944c18.458-16.573 20.066-45.141 3.585-63.681zm-118.578 44.671-20.458 18.097c.076-1.068.115-2.148.115-3.236 0-24.813-20.187-45-45.025-45l-44.632.074v-138.151h110zm20-198.216h-130v-40h130zm-105-120c13.785 0 25 11.215 25 25s-11.215 25-25 25h-25v-25c0-13.785 11.215-25 25-25zm-105 25c0-13.785 11.215-25 25-25s25 11.215 25 25v25h-25c-13.785 0-25-11.215-25-25zm-80 55h130v40h-130zm20 70h110v136.673c-20.747-20.447-47.806-32.789-77.132-34.998-11.139-.838-22.174-.183-32.868 1.89zm-47.122 297.304-48.182-112.425 27.572-11.816 48.182 112.425zm392.072-132.398-113.536 101.945c-8.271 7.427-18.948 11.517-30.064 11.517h-191.313l-51.727-120.698 5.192-4.379c8.113-6.843 17.171-12.159 26.816-15.852.205-.078.413-.149.614-.235 12.509-4.687 25.989-6.645 39.683-5.614 24.498 1.845 46.91 13.035 63.106 31.508 2.848 3.249 6.958 5.111 11.278 5.111h.025l19.337-.032c.213.009.423.032.639.032.23 0 .454-.024.682-.034l58.975-.098c8.271 0 15 6.729 15 15s-6.729 15-15 15h-103.234c-8.284 0-15 6.716-15 15s6.716 15 15 15h129.138c10.992 0 21.58-4.011 29.815-11.295l84.326-74.594c6.271-5.546 15.893-4.967 21.454 1.288 5.546 6.239 5.005 15.853-1.206 21.43z"/></g></svg>